# xmcd
#
# Track frame offsets: 
#        150
#        18822
#        39837
#        60267
#        84240
#        99330
#        127210
#        147895
#        159972
#        171267
#
# Disc length: 3283 seconds
#
# Revision: 3
# Processed by: cddbd v1.5.2PL0 Copyright (c) Steve Scherf et al.
# Submitted via: ExactAudioCopy v1.0b1
#
DISCID=6d0cd10a
DTITLE=North Mississippi Allstars - Shake Hands With Shorty
DYEAR=2001
DGENRE=Blues
TTITLE0=Shake 'Em On Down
TTITLE1=Drop Down Mama
TTITLE2=Po Black Maddie
TTITLE3=Skinny Woman
TTITLE4=Drinking Muddy Water
TTITLE5=Goin' Down South
TTITLE6=K. C. Jones (On The Road Again)
TTITLE7=Sitting On Top Of The World (A.K.A Station Blues)
TTITLE8=Someday Baby
TTITLE9=All Night Long
EXTD=Tone-Cool Records
EXTT0=
EXTT1=
EXTT2=
EXTT3=
EXTT4=
EXTT5=
EXTT6=
EXTT7=
EXTT8=
EXTT9=
PLAYORDER=
